<svg width="24" height="24" viewBox="0 0 24 24" fill="none" xmlns="http://www.w3.org/2000/svg">
<g clip-path="url(#clip0_1_114)">
<path d="M11.4166 7.33334H7.33329C7.02387 7.33334 6.72713 7.45626 6.50833 7.67505C6.28954 7.89384 6.16663 8.19059 6.16663 8.50001V16.6667C6.16663 16.9761 6.28954 17.2728 6.50833 17.4916C6.72713 17.7104 7.02387 17.8333 7.33329 17.8333H15.5C15.8094 17.8333 16.1061 17.7104 16.3249 17.4916C16.5437 17.2728 16.6666 16.9761 16.6666 16.6667V12.5833" stroke="#808080" stroke-width="1.4" stroke-linecap="round" stroke-linejoin="round"/>
<path d="M15.7916 6.45834C16.0237 6.22627 16.3384 6.0959 16.6666 6.0959C16.9948 6.0959 17.3096 6.22627 17.5416 6.45834C17.7737 6.6904 17.9041 7.00515 17.9041 7.33334C17.9041 7.66153 17.7737 7.97627 17.5416 8.20834L12 13.75L9.66663 14.3333L10.25 12L15.7916 6.45834Z" stroke="#808080" stroke-width="1.4" stroke-linecap="round" stroke-linejoin="round"/>
</g>
<defs>
<clipPath id="clip0_1_114">
<rect width="14" height="14" fill="white" transform="translate(5 5)"/>
</clipPath>
</defs>
</svg>
