<svg width="229" height="48" viewBox="0 0 229 48" fill="none" xmlns="http://www.w3.org/2000/svg">
<path d="M61.0455 9.90909V39H54.4545L43.9432 23.7159H43.7727V39H35.875V9.90909H42.5795L52.9205 25.1364H53.1477V9.90909H61.0455ZM79.0426 29.4545V17.1818H86.8835V39H79.4403V34.8523H79.2131C78.7396 36.2443 77.911 37.3333 76.7273 38.1193C75.5436 38.8958 74.1373 39.2841 72.5085 39.2841C70.9839 39.2841 69.6487 38.9337 68.5028 38.233C67.3665 37.5322 66.4811 36.5663 65.8466 35.3352C65.2216 34.1042 64.9044 32.6932 64.8949 31.1023V17.1818H72.7358V29.4545C72.7453 30.5341 73.0199 31.3816 73.5597 31.9972C74.1089 32.6127 74.8759 32.9205 75.8608 32.9205C76.5142 32.9205 77.0777 32.7831 77.5511 32.5085C78.0341 32.2244 78.4034 31.8267 78.6591 31.3153C78.9242 30.7945 79.0521 30.1742 79.0426 29.4545ZM151.93 17.1818V22.8636H137.555V17.1818H151.93ZM140.339 11.9545H148.18V31.983C148.18 32.286 148.232 32.5417 148.336 32.75C148.44 32.9489 148.601 33.1004 148.819 33.2045C149.037 33.2992 149.316 33.3466 149.657 33.3466C149.894 33.3466 150.168 33.3182 150.481 33.2614C150.803 33.2045 151.04 33.1572 151.191 33.1193L152.327 38.6307C151.977 38.7348 151.475 38.8627 150.822 39.0142C150.178 39.1657 149.411 39.2652 148.521 39.3125C146.721 39.4072 145.211 39.2225 143.989 38.7585C142.768 38.285 141.849 37.5417 141.234 36.5284C140.618 35.5152 140.32 34.2462 140.339 32.7216V11.9545ZM165.406 39.3977C163.039 39.3977 161.012 38.929 159.327 37.9915C157.641 37.0445 156.348 35.7282 155.449 34.0426C154.549 32.3475 154.099 30.3826 154.099 28.1477C154.099 25.9129 154.549 23.9527 155.449 22.267C156.348 20.572 157.641 19.2557 159.327 18.3182C161.012 17.3712 163.039 16.8977 165.406 16.8977C167.774 16.8977 169.8 17.3712 171.486 18.3182C173.171 19.2557 174.464 20.572 175.364 22.267C176.263 23.9527 176.713 25.9129 176.713 28.1477C176.713 30.3826 176.263 32.3475 175.364 34.0426C174.464 35.7282 173.171 37.0445 171.486 37.9915C169.8 38.929 167.774 39.3977 165.406 39.3977ZM165.463 33.6023C166.126 33.6023 166.699 33.3797 167.182 32.9347C167.665 32.4896 168.039 31.8551 168.304 31.0312C168.569 30.2074 168.702 29.2273 168.702 28.0909C168.702 26.9451 168.569 25.965 168.304 25.1506C168.039 24.3267 167.665 23.6922 167.182 23.2472C166.699 22.8021 166.126 22.5795 165.463 22.5795C164.762 22.5795 164.161 22.8021 163.659 23.2472C163.157 23.6922 162.774 24.3267 162.509 25.1506C162.243 25.965 162.111 26.9451 162.111 28.0909C162.111 29.2273 162.243 30.2074 162.509 31.0312C162.774 31.8551 163.157 32.4896 163.659 32.9347C164.161 33.3797 164.762 33.6023 165.463 33.6023Z" fill="#4EA8DE"/>
<path d="M97.6328 17.1818L100.815 23.9432L104.167 17.1818H111.951L106.099 28.0909L112.235 39H104.508L100.815 32.0682L97.2351 39H89.3942L95.5874 28.0909L89.7919 17.1818H97.6328ZM127.75 17.1818V22.8636H113.375V17.1818H127.75ZM116.159 11.9545H124V31.983C124 32.286 124.052 32.5417 124.156 32.75C124.26 32.9489 124.421 33.1004 124.639 33.2045C124.857 33.2992 125.136 33.3466 125.477 33.3466C125.714 33.3466 125.989 33.3182 126.301 33.2614C126.623 33.2045 126.86 33.1572 127.011 33.1193L128.148 38.6307C127.797 38.7348 127.295 38.8627 126.642 39.0142C125.998 39.1657 125.231 39.2652 124.341 39.3125C122.542 39.4072 121.031 39.2225 119.81 38.7585C118.588 38.285 117.67 37.5417 117.054 36.5284C116.438 35.5152 116.14 34.2462 116.159 32.7216V11.9545ZM187.793 39.2841C186.24 39.2841 184.81 38.8769 183.503 38.0625C182.205 37.2481 181.164 36.0123 180.378 34.3551C179.601 32.6979 179.213 30.6098 179.213 28.0909C179.213 25.4583 179.62 23.3182 180.435 21.6705C181.259 20.0227 182.319 18.8153 183.616 18.0483C184.923 17.2812 186.296 16.8977 187.736 16.8977C188.815 16.8977 189.762 17.0871 190.577 17.4659C191.391 17.8352 192.073 18.3324 192.622 18.9574C193.171 19.5729 193.588 20.25 193.872 20.9886H193.986V9.90909H201.827V39H194.043V35.4205H193.872C193.569 36.1591 193.134 36.822 192.565 37.4091C192.007 37.9867 191.325 38.446 190.52 38.7869C189.724 39.1184 188.815 39.2841 187.793 39.2841ZM190.69 33.2614C191.41 33.2614 192.026 33.053 192.537 32.6364C193.058 32.2102 193.455 31.6136 193.73 30.8466C194.014 30.0701 194.156 29.1515 194.156 28.0909C194.156 27.0114 194.014 26.0881 193.73 25.321C193.455 24.5445 193.058 23.9527 192.537 23.5455C192.026 23.1288 191.41 22.9205 190.69 22.9205C189.971 22.9205 189.355 23.1288 188.844 23.5455C188.342 23.9527 187.954 24.5445 187.679 25.321C187.414 26.0881 187.281 27.0114 187.281 28.0909C187.281 29.1705 187.414 30.0985 187.679 30.875C187.954 31.642 188.342 32.2339 188.844 32.6506C189.355 33.0578 189.971 33.2614 190.69 33.2614ZM216.188 39.3977C213.82 39.3977 211.794 38.929 210.108 37.9915C208.422 37.0445 207.13 35.7282 206.23 34.0426C205.33 32.3475 204.881 30.3826 204.881 28.1477C204.881 25.9129 205.33 23.9527 206.23 22.267C207.13 20.572 208.422 19.2557 210.108 18.3182C211.794 17.3712 213.82 16.8977 216.188 16.8977C218.555 16.8977 220.581 17.3712 222.267 18.3182C223.953 19.2557 225.245 20.572 226.145 22.267C227.045 23.9527 227.494 25.9129 227.494 28.1477C227.494 30.3826 227.045 32.3475 226.145 34.0426C225.245 35.7282 223.953 37.0445 222.267 37.9915C220.581 38.929 218.555 39.3977 216.188 39.3977ZM216.244 33.6023C216.907 33.6023 217.48 33.3797 217.963 32.9347C218.446 32.4896 218.82 31.8551 219.085 31.0312C219.35 30.2074 219.483 29.2273 219.483 28.0909C219.483 26.9451 219.35 25.965 219.085 25.1506C218.82 24.3267 218.446 23.6922 217.963 23.2472C217.48 22.8021 216.907 22.5795 216.244 22.5795C215.544 22.5795 214.942 22.8021 214.44 23.2472C213.938 23.6922 213.555 24.3267 213.29 25.1506C213.025 25.965 212.892 26.9451 212.892 28.0909C212.892 29.2273 213.025 30.2074 213.29 31.0312C213.555 31.8551 213.938 32.4896 214.44 32.9347C214.942 33.3797 215.544 33.6023 216.244 33.6023Z" fill="#5E60CE"/>
<g clip-path="url(#clip0_1_139)">
<path d="M11.0215 12.933C14.1472 16.9011 15.8157 21.7944 15.7552 26.8155V28.0141L16.7864 28.6416C18.1189 29.4482 19.1126 30.6993 19.5866 32.1669C19.1705 31.8605 18.7351 31.5803 18.2832 31.3278L15.5332 29.7838L15.039 32.9001C14.9962 33.1755 14.9389 33.4485 14.8672 33.718H7.16145C7.04686 33.3655 6.95376 33.0129 6.86783 32.6463L6.24478 29.8261L3.70962 31.2362C3.28609 31.473 2.87717 31.7344 2.48501 32.0188C2.96818 30.5682 3.94117 29.3242 5.24218 28.4935L6.22329 27.866V26.7521C6.24099 21.7513 7.92961 16.8952 11.0286 12.933H11.0215ZM11.0286 10C10.8679 10.0004 10.7128 10.058 10.5918 10.1622L10.5273 10.2186C6.39772 14.7656 4.1046 20.6454 4.08202 26.745C2.32961 27.8643 1.03244 29.5543 0.417202 31.5197C-0.19804 33.485 -0.0922329 35.6007 0.716133 37.4971C1.5677 35.6455 2.99125 34.1058 4.78384 33.0975C4.96362 33.8642 5.20304 34.6161 5.49999 35.3467C5.53765 35.4871 5.62112 35.6114 5.73757 35.7006C5.85402 35.7898 5.997 35.8388 6.14452 35.8402H16.0846C16.2851 35.8402 16.4857 35.6498 16.5859 35.3537C16.8757 34.6592 17.0778 33.9322 17.1875 33.1892C18.9835 34.1932 20.4082 35.7342 21.2552 37.5887C22.1123 35.7017 22.245 33.5727 21.6287 31.5967C21.0123 29.6206 19.6888 27.9319 17.9036 26.8437C17.9745 20.7082 15.6935 14.7718 11.5156 10.2186C11.4534 10.1501 11.3773 10.0952 11.2921 10.0576C11.207 10.0199 11.1148 10.0003 11.0215 10H11.0286Z" fill="#4EA8DE"/>
<path d="M11.0214 26.1598C10.4714 26.1598 9.93363 25.9995 9.47599 25.699C9.01834 25.3986 8.66128 24.9715 8.44981 24.4716C8.23834 23.9716 8.18194 23.4213 8.2877 22.8898C8.39346 22.3584 8.65666 21.8697 9.04411 21.4853C9.43157 21.1009 9.92594 20.838 10.4649 20.7298C11.0039 20.6216 11.5633 20.6729 12.0727 20.8773C12.5821 21.0816 13.0187 21.4298 13.3273 21.8781C13.636 22.3263 13.803 22.8545 13.8073 23.396C13.8158 23.7469 13.7541 24.0961 13.6255 24.4235C13.497 24.751 13.3042 25.0503 13.0581 25.3043C12.812 25.5583 12.5175 25.7622 12.1914 25.9041C11.8653 26.0461 11.514 26.1234 11.1575 26.1316C11.1124 26.1387 11.0665 26.1387 11.0214 26.1316V26.1598Z" fill="#4EA8DE"/>
<path d="M14.8958 37.5958C14.7166 37.5901 14.5381 37.6198 14.3707 37.683C14.2033 37.7462 14.0504 37.8416 13.921 37.9638C13.7916 38.086 13.6882 38.2323 13.6171 38.3943C13.5459 38.5563 13.5083 38.7307 13.5065 38.9072V43.067C13.5065 43.4297 13.6528 43.7776 13.9134 44.0342C14.1739 44.2907 14.5273 44.4348 14.8958 44.4348C15.2643 44.4348 15.6176 44.2907 15.8782 44.0342C16.1387 43.7776 16.2851 43.4297 16.2851 43.067V38.9636C16.2908 38.7877 16.261 38.6126 16.1972 38.4482C16.1335 38.2839 16.0371 38.1337 15.9138 38.0064C15.7905 37.879 15.6427 37.7772 15.479 37.7067C15.3152 37.6362 15.1389 37.5985 14.9602 37.5958H14.8958Z" fill="#5E60CE"/>
<path d="M7.16142 37.5958C6.97918 37.5863 6.79687 37.613 6.62534 37.6743C6.4538 37.7356 6.29653 37.8302 6.1629 37.9526C6.02927 38.0749 5.922 38.2225 5.84748 38.3865C5.77296 38.5505 5.73271 38.7275 5.72913 38.9072V43.067C5.72913 43.4297 5.8755 43.7777 6.13605 44.0342C6.3966 44.2907 6.74998 44.4348 7.11845 44.4348C7.48692 44.4348 7.8403 44.2907 8.10085 44.0342C8.3614 43.7777 8.50777 43.4297 8.50777 43.067V38.9636C8.5135 38.7877 8.48361 38.6126 8.41986 38.4482C8.35611 38.2839 8.25977 38.1337 8.13646 38.0064C8.01314 37.879 7.86532 37.7772 7.70161 37.7067C7.53789 37.6362 7.36157 37.5985 7.1829 37.5958H7.16142Z" fill="#5E60CE"/>
<path d="M10.9212 37.5958C10.7425 37.592 10.5648 37.623 10.3982 37.6869C10.2317 37.7507 10.0796 37.8463 9.95056 37.9681C9.82154 38.0899 9.71816 38.2355 9.64632 38.3966C9.57448 38.5577 9.53558 38.7312 9.53186 38.9072V44.6392C9.53186 45.002 9.67823 45.3499 9.93878 45.6064C10.1993 45.8629 10.5527 46.007 10.9212 46.007C11.2897 46.007 11.643 45.8629 11.9036 45.6064C12.1641 45.3499 12.3105 45.002 12.3105 44.6392V38.9988C12.3162 38.823 12.2863 38.6478 12.2226 38.4835C12.1588 38.3191 12.0625 38.1689 11.9392 38.0416C11.8159 37.9143 11.6681 37.8124 11.5043 37.7419C11.3406 37.6714 11.1643 37.6337 10.9856 37.631L10.9212 37.5958Z" fill="#5E60CE"/>
</g>
<defs>
<clipPath id="clip0_1_139">
<rect width="22" height="36" fill="white" transform="translate(0 10)"/>
</clipPath>
</defs>
</svg>
